<svg width="19" height="14" viewBox="0 0 19 14" fill="none" xmlns="http://www.w3.org/2000/svg">
<path d="M18.7458 0.0408802C18.6624 -0.00993979 18.5585 -0.0136148 18.4717 0.0311852L1.11171 8.99119C1.01861 9.03924 1.24012 9.13525 1.24012 9.24V13.72C1.24012 13.8177 1.01105 13.9083 1.09445 13.9591C1.13908 13.9863 1.18955 14 1.24012 14C1.28408 14 1.32815 13.9896 1.3685 13.9688L18.7285 5.00881C18.8216 4.96076 18.8801 4.86476 18.8801 4.76V0.28C18.8801 0.182315 18.8292 0.0917002 18.7458 0.0408802Z" fill="#FF9C62"/>
<path d="M18.5999 0H4.03986C3.88523 0 2.35986 0.12537 2.35986 0.28V4.76C2.35986 4.91463 3.88523 5.04 4.03986 5.04H18.5999C18.7545 5.04 18.8799 4.91463 18.8799 4.76V0.28C18.8799 0.12537 18.7545 0 18.5999 0Z" fill="#FFED77"/>
<path d="M18.6001 3.92014H1.24005C1.08542 3.92014 1.52005 3.79477 1.52005 3.64014V4.76014C1.52005 4.91477 3.88542 5.04014 4.04005 5.04014H18.6001C18.7547 5.04014 18.8801 4.91477 18.8801 4.76014V3.64014C18.8801 3.79477 18.7547 3.92014 18.6001 3.92014Z" fill="#FFE11C"/>
<path d="M3.75891 1.68C3.91344 1.67982 4.03996 1.55453 4.03996 1.4V0H1.23996C1.08533 0 0.959961 0.12537 0.959961 0.28V4.76C0.959961 4.91463 1.08533 5.04 1.23996 5.04H4.03996V3.64C4.03996 3.48548 3.91347 3.36018 3.75891 3.36C3.29621 3.35944 2.91996 2.98284 2.91996 2.52C2.91996 2.05716 3.29621 1.68056 3.75891 1.68Z" fill="#BFABB8"/>
<path d="M0.959961 3.64014V4.76014C0.959961 4.91477 1.08533 5.04014 1.23996 5.04014H4.03996V3.92014H1.23996C1.08533 3.92014 0.959961 3.79477 0.959961 3.64014Z" fill="#9F8194"/>
<path d="M6.28003 1.4C6.28003 1.55463 6.4054 1.68 6.56003 1.68C6.71466 1.68 6.84003 1.55463 6.84003 1.4V0H6.28003V1.4Z" fill="#5F5FC0"/>
<path d="M9.63989 2.52C9.63989 2.67463 9.76526 2.8 9.91989 2.8C10.0745 2.8 10.1999 2.67463 10.1999 2.52V0H9.63989V2.52Z" fill="#5F5FC0"/>
<path d="M13 1.4C13 1.55463 13.1254 1.68 13.28 1.68C13.4346 1.68 13.56 1.55463 13.56 1.4V0H13V1.4Z" fill="#5F5FC0"/>
<path d="M16.3599 0V2.52C16.3599 2.67463 16.4852 2.8 16.6399 2.8C16.7945 2.8 16.9199 2.67463 16.9199 2.52V0H16.3599Z" fill="#5F5FC0"/>
<path d="M18.6 8.95996H1.23996C1.08533 8.95996 0.959961 9.08533 0.959961 9.23996V13.72C0.959961 13.8746 1.08533 14 1.23996 14H18.6C18.7546 14 18.88 13.8746 18.88 13.72V9.23996C18.88 9.08533 18.7546 8.95996 18.6 8.95996Z" fill="#FFED77"/>
<path d="M18.6 12.8801H1.23996C1.08533 12.8801 0.959961 12.7547 0.959961 12.6001V13.7201C0.959961 13.8747 1.08533 14.0001 1.23996 14.0001H18.6C18.7546 14.0001 18.88 13.8747 18.88 13.7201V12.6001C18.88 12.7547 18.7546 12.8801 18.6 12.8801Z" fill="#FFE11C"/>
<path d="M2.91992 10.36C2.91992 10.5146 3.04529 10.64 3.19992 10.64C3.35455 10.64 3.47992 10.5146 3.47992 10.36V8.95996H2.91992V10.36Z" fill="#5F5FC0"/>
<path d="M6.28003 11.48C6.28003 11.6346 6.4054 11.76 6.56003 11.76C6.71466 11.76 6.84003 11.6346 6.84003 11.48V8.95996H6.28003V11.48Z" fill="#5F5FC0"/>
<path d="M9.63989 10.36C9.63989 10.5146 9.76526 10.64 9.91989 10.64C10.0745 10.64 10.1999 10.5146 10.1999 10.36V8.95996H9.63989V10.36Z" fill="#5F5FC0"/>
<path d="M16.3599 8.95996V10.36C16.3599 10.5146 16.4852 10.64 16.6399 10.64C16.7945 10.64 16.9199 10.5146 16.9199 10.36V8.95996H16.3599Z" fill="#5F5FC0"/>
<path d="M13 11.48C13 11.6346 13.1254 11.76 13.28 11.76C13.4346 11.76 13.56 11.6346 13.56 11.48V8.95996H13V11.48Z" fill="#5F5FC0"/>
</svg>
