<svg width="21" height="30" viewBox="0 0 21 30" fill="none" xmlns="http://www.w3.org/2000/svg">
<path d="M14.6742 11.8644H5.39108C4.82034 11.8644 4.35962 11.4037 4.35962 10.833C4.35962 10.2622 4.82034 9.80151 5.39108 9.80151H14.6742C15.245 9.80151 15.7057 10.2622 15.7057 10.833C15.7057 11.4037 15.2381 11.8644 14.6742 11.8644Z" fill="#173E57"/>
<path d="M8.36856 15.9902H5.39108C4.82034 15.9902 4.35962 15.5294 4.35962 14.9587C4.35962 14.388 4.82034 13.9272 5.39108 13.9272H8.36856C8.9393 13.9272 9.40002 14.388 9.40002 14.9587C9.40002 15.5294 8.9393 15.9902 8.36856 15.9902Z" fill="#173E57"/>
<path d="M8.36856 20.1161H5.39108C4.82034 20.1161 4.35962 19.6554 4.35962 19.0847C4.35962 18.5139 4.82034 18.0532 5.39108 18.0532H8.36856C8.9393 18.0532 9.40002 18.5139 9.40002 19.0847C9.40002 19.6554 8.9393 20.1161 8.36856 20.1161Z" fill="#173E57"/>
<path d="M8.36856 24.2419H5.39108C4.82034 24.2419 4.35962 23.7812 4.35962 23.2104C4.35962 22.6397 4.82034 22.179 5.39108 22.179H8.36856C8.9393 22.179 9.40002 22.6397 9.40002 23.2104C9.40002 23.7812 8.9393 24.2419 8.36856 24.2419Z" fill="#173E57"/>
<path d="M12.1508 17.3659C11.8688 17.3659 11.5938 17.2559 11.3875 17.029L10.1291 15.6537C9.74403 15.2342 9.77154 14.581 10.191 14.1959C10.6105 13.8108 11.2637 13.8383 11.6488 14.2578L12.2539 14.9179L14.0212 13.4739C14.4612 13.1163 15.1145 13.1782 15.4721 13.6183C15.8297 14.0583 15.7678 14.7116 15.3277 15.0692L12.804 17.1321C12.6115 17.2834 12.3777 17.3659 12.1508 17.3659Z" fill="#173E57"/>
<path d="M12.1508 22.736C11.8688 22.736 11.5938 22.626 11.3875 22.3991L10.1291 21.0238C9.74403 20.6043 9.77154 19.9511 10.191 19.566C10.6105 19.1809 11.2637 19.2084 11.6488 19.6279L12.2539 20.288L14.0212 18.844C14.4612 18.4864 15.1145 18.5483 15.4721 18.9884C15.8297 19.4285 15.7678 20.0817 15.3277 20.4393L12.804 22.5022C12.6115 22.6604 12.3777 22.736 12.1508 22.736Z" fill="#173E57"/>
<path d="M15.0181 7.39484H5.61801C5.04727 7.39484 4.58655 6.93412 4.58655 6.36338V1.77682C4.58655 1.20608 5.04727 0.745361 5.61801 0.745361H15.0181C15.5888 0.745361 16.0495 1.20608 16.0495 1.77682V6.36338C16.0495 6.93412 15.5819 7.39484 15.0181 7.39484ZM6.64947 5.33192H13.9866V2.80828H6.64947V5.33192Z" fill="#173E57"/>
<path d="M19.3708 29.1655H1.03146C0.460719 29.1655 0 28.7048 0 28.134V4.06662C0 3.49588 0.460719 3.03516 1.03146 3.03516H5.61802C6.18876 3.03516 6.64948 3.49588 6.64948 4.06662V5.325H13.9866V4.06662C13.9866 3.49588 14.4473 3.03516 15.0181 3.03516H19.3708C19.9416 3.03516 20.4023 3.49588 20.4023 4.06662V28.134C20.4023 28.7048 19.9416 29.1655 19.3708 29.1655ZM2.06292 27.1026H18.3394V5.09808H16.0495V6.35646C16.0495 6.9272 15.5888 7.38792 15.0181 7.38792H5.61802C5.04728 7.38792 4.58656 6.9272 4.58656 6.35646V5.09808H2.06292V27.1026Z" fill="#173E57"/>
</svg>
