<svg width="34" height="29" viewBox="0 0 34 29" fill="none" xmlns="http://www.w3.org/2000/svg">
<path d="M18.9524 23.9673H14.6253C13.8755 23.9673 13.2703 23.3621 13.2703 22.6123V20.0016H10.6596C9.90981 20.0016 9.30457 19.3964 9.30457 18.6466V14.3195C9.30457 13.5697 9.90981 12.9645 10.6596 12.9645H13.2703V10.3538C13.2703 9.60403 13.8755 8.99878 14.6253 8.99878H18.9524C19.7021 8.99878 20.3074 9.60403 20.3074 10.3538V12.9645H22.9181C23.6679 12.9645 24.2731 13.5697 24.2731 14.3195V18.6466C24.2731 19.3964 23.6679 20.0016 22.9181 20.0016H20.3074V22.6123C20.3074 23.353 19.6931 23.9673 18.9524 23.9673ZM15.9803 21.2573H17.5973V18.6466C17.5973 17.8968 18.2026 17.2916 18.9524 17.2916H21.5631V15.6746H18.9524C18.2026 15.6746 17.5973 15.0693 17.5973 14.3195V11.7088H15.9803V14.3195C15.9803 15.0693 15.3751 15.6746 14.6253 15.6746H12.0146V17.2916H14.6253C15.3751 17.2916 15.9803 17.8968 15.9803 18.6466V21.2573Z" fill="#173E57"/>
<path d="M29.2415 28.764H4.33609C1.94221 28.764 0 26.8218 0 24.428V8.53799C0 6.14411 1.94221 4.2019 4.33609 4.2019H29.2415C31.6354 4.2019 33.5776 6.14411 33.5776 8.53799V24.437C33.5776 26.8218 31.6264 28.764 29.2415 28.764ZM4.33609 6.91196C3.44177 6.91196 2.71006 7.63464 2.71006 8.53799V24.437C2.71006 25.3313 3.44177 26.063 4.33609 26.063H29.2415C30.1358 26.063 30.8675 25.3313 30.8675 24.437V8.53799C30.8675 7.64367 30.1358 6.91196 29.2415 6.91196H4.33609Z" fill="#173E57"/>
<path d="M21.6443 6.88499H11.9242C11.1745 6.88499 10.5692 6.27975 10.5692 5.52997V1.64556C10.5692 0.895773 11.1745 0.290527 11.9242 0.290527H21.6443C22.3941 0.290527 22.9993 0.895773 22.9993 1.64556V5.52997C22.9993 6.27975 22.3941 6.88499 21.6443 6.88499ZM13.2793 4.17494H20.2893V3.00058H13.2793V4.17494Z" fill="#173E57"/>
</svg>
