<svg width="39" height="39" viewBox="0 0 39 39" fill="none" xmlns="http://www.w3.org/2000/svg">
<path d="M10.9321 21.3281H4.82921C4.34436 21.3281 3.87937 21.1355 3.53653 20.7927C3.19369 20.4499 3.00108 19.9849 3.00108 19.5C3.00108 19.0152 3.19369 18.5502 3.53653 18.2073C3.87937 17.8645 4.34436 17.6719 4.82921 17.6719H9.95253L11.8492 14.8292C12.016 14.5778 12.2423 14.3715 12.5082 14.2289C12.774 14.0862 13.071 14.0116 13.3726 14.0116C13.6743 14.0116 13.9713 14.0862 14.2371 14.2289C14.5029 14.3715 14.7293 14.5778 14.8961 14.8292L18.2476 19.8565L19.1617 18.4854C19.3289 18.2348 19.5555 18.0293 19.8213 17.8874C20.0871 17.7455 20.3838 17.6714 20.6851 17.6719H24.3414C24.8262 17.6719 25.2912 17.8645 25.6341 18.2073C25.9769 18.5502 26.1695 19.0152 26.1695 19.5C26.1695 19.9849 25.9769 20.4499 25.6341 20.7927C25.2912 21.1355 24.8262 21.3281 24.3414 21.3281H21.6601L19.7619 24.1709C19.5952 24.4223 19.3688 24.6285 19.103 24.7711C18.8372 24.9138 18.5402 24.9885 18.2385 24.9885C17.9368 24.9885 17.6398 24.9138 17.374 24.7711C17.1082 24.6285 16.8818 24.4223 16.7151 24.1709L13.3635 19.1435L12.4494 20.5146C12.2828 20.7644 12.0572 20.9693 11.7925 21.1112C11.5279 21.2531 11.2324 21.3276 10.9321 21.3281ZM27.1034 4.26564C24.0382 4.26564 21.3143 5.47372 19.4755 7.55017C17.6322 5.47372 14.9128 4.26564 11.8462 4.26564C9.37003 4.26199 6.97963 5.17216 5.13299 6.82174C3.28634 8.47133 2.11332 10.7443 1.8387 13.2052C1.78537 13.6886 1.92626 14.1734 2.23039 14.553C2.53452 14.9325 2.97697 15.1757 3.4604 15.2291C3.94384 15.2824 4.42866 15.1415 4.80821 14.8374C5.18776 14.5332 5.43095 14.0908 5.48429 13.6074C5.65969 12.0431 6.40555 10.5983 7.57924 9.54943C8.75293 8.50053 10.2721 7.92108 11.8462 7.92189C14.5625 7.92189 16.8354 9.35392 17.78 11.6604C17.9165 11.998 18.1507 12.2872 18.4527 12.4908C18.7547 12.6945 19.1106 12.8032 19.4748 12.8032C19.839 12.8032 20.1949 12.6945 20.4968 12.4908C20.7988 12.2872 21.0331 11.998 21.1696 11.6604C22.1141 9.35392 24.3871 7.92189 27.1034 7.92189C28.8017 7.92148 30.4309 8.59503 31.6331 9.79466C32.8353 10.9943 33.5123 12.622 33.5155 14.3203C33.5155 18.8023 29.5759 23.1212 26.2701 25.9533C24.1449 27.7546 21.8732 29.3755 19.4786 30.7993C17.8226 29.8167 14.0902 27.4478 10.8696 24.2897C10.6984 24.1212 10.4956 23.9882 10.273 23.8981C10.0503 23.808 9.81203 23.7626 9.57182 23.7646C9.33162 23.7666 9.09415 23.8159 8.87299 23.9096C8.65183 24.0034 8.45129 24.1398 8.28284 24.311C8.11439 24.4823 7.98132 24.685 7.89123 24.9077C7.80113 25.1304 7.75578 25.3686 7.75776 25.6088C7.76176 26.094 7.95831 26.5576 8.30417 26.8978C12.9339 31.4392 18.3817 34.3931 18.6117 34.515C18.8786 34.658 19.1766 34.7328 19.4793 34.7328C19.7821 34.7328 20.0801 34.658 20.3469 34.515C21.0233 34.1463 37.1718 25.3409 37.1718 14.3203C37.1669 11.6528 36.1042 9.09605 34.2166 7.21109C32.3291 5.32612 29.771 4.26684 27.1034 4.26564Z" fill="white"/>
</svg>
