<svg width="30" height="30" viewBox="0 0 30 30" fill="none" xmlns="http://www.w3.org/2000/svg">
<path d="M17.037 2.03711C9.8912 2.03711 4.08022 7.85421 4.08022 15.0001V15.0429L1.51458 11.1791C1.26352 10.7995 0.74917 10.6954 0.369528 10.9465C-0.0101146 11.1975 -0.11421 11.7119 0.136844 12.0915L3.85979 17.6943C3.9945 17.8964 4.20881 18.0249 4.44762 18.0556C4.48436 18.0617 4.51498 18.0617 4.55171 18.0617C4.75378 18.0617 4.94973 17.9882 5.10281 17.8474L10.277 13.1876C10.6137 12.8814 10.6444 12.3609 10.3382 12.018C10.032 11.6812 9.51156 11.6506 9.16865 11.9568L5.7335 15.0613V15.0001C5.7335 8.76045 10.8036 3.69039 17.037 3.69039C23.2705 3.69039 28.3467 8.76045 28.3467 15.0001C28.3467 21.2397 23.2766 26.3097 17.0432 26.3097C14.0244 26.3097 11.1832 25.1341 9.05231 22.997C8.72778 22.6725 8.2073 22.6725 7.88277 22.997C7.55824 23.3216 7.55824 23.842 7.88277 24.1666C10.3321 26.6159 13.5835 27.963 17.0432 27.963C24.1829 27.963 30 22.152 30 15.0001C30 7.84808 24.1829 2.03711 17.037 2.03711Z" fill="#19425A"/>
</svg>
