<svg width="15" height="14" viewBox="0 0 15 14" fill="none" xmlns="http://www.w3.org/2000/svg">
<g clip-path="url(#clip0_130_1059)">
<path d="M14.3697 13.1759L12.7772 4.88334C12.7131 4.5495 12.4019 4.30649 12.0384 4.30649H9.38989C9.88647 3.84997 10.1951 3.21576 10.1951 2.51534C10.1951 1.12836 8.98612 0 7.50007 0C6.01403 0 4.80502 1.12836 4.80502 2.51534C4.80502 3.21576 5.11363 3.84997 5.61021 4.30649H2.96168C2.59824 4.30649 2.28708 4.5495 2.22294 4.88334L0.630422 13.1759C0.591246 13.3801 0.650936 13.5899 0.793581 13.749C0.936177 13.9081 1.14697 14 1.36917 14H13.6309C13.8531 14 14.0639 13.9081 14.2065 13.749C14.3491 13.5899 14.4089 13.3801 14.3697 13.1759ZM7.50007 1.40094C8.15847 1.40094 8.69408 1.90084 8.69408 2.51534C8.69408 3.12984 8.15847 3.62978 7.50007 3.62978C6.84168 3.62978 6.30603 3.12984 6.30603 2.51534C6.30603 1.90084 6.84168 1.40094 7.50007 1.40094ZM7.30394 10.8398C7.26487 10.9071 7.18942 10.9489 7.10746 10.9489H6.75343C6.67407 10.9489 6.60062 10.9097 6.5605 10.8457L5.68431 9.4497L5.12398 9.98355V10.6264C5.12398 10.8046 4.96928 10.9489 4.77845 10.9489C4.58762 10.9489 4.43292 10.8046 4.43292 10.6264V8.07688C4.43292 7.89877 4.58762 7.75438 4.77845 7.75438C4.96928 7.75438 5.12398 7.89877 5.12398 8.07688V9.17292L6.45382 7.82186C6.49615 7.77885 6.55589 7.75438 6.61843 7.75438H6.92229C7.01205 7.75438 7.09305 7.80444 7.12813 7.88154C7.16315 7.95864 7.14539 8.04783 7.08305 8.10803L6.16063 8.99856L7.29489 10.6265C7.33957 10.6907 7.34307 10.7725 7.30394 10.8398ZM10.7084 10.4144C10.7084 10.4778 10.6774 10.538 10.6243 10.5776C10.4864 10.6803 10.3047 10.7725 10.0793 10.8541C9.80447 10.9536 9.52623 11.0033 9.24454 11.0033C8.8865 11.0033 8.57454 10.9333 8.30827 10.7931C8.04219 10.6529 7.8421 10.4524 7.70826 10.1916C7.57437 9.93088 7.50748 9.64728 7.50748 9.34071C7.50748 9.00808 7.58218 8.71239 7.73163 8.45387C7.88103 8.19526 8.09973 7.99702 8.38772 7.85894C8.60707 7.75293 8.8803 7.69984 9.20717 7.69984C9.6321 7.69984 9.96398 7.78305 10.2029 7.94939C10.3065 8.02145 10.394 8.10546 10.4655 8.20138C10.5338 8.29304 10.5477 8.41077 10.5023 8.51406C10.457 8.61741 10.3587 8.69236 10.2411 8.7129L10.2403 8.71304C10.1025 8.73709 9.96278 8.68012 9.88818 8.56935C9.84044 8.49847 9.77955 8.43781 9.70565 8.38733C9.57251 8.29655 9.40635 8.25115 9.20717 8.25115C8.90517 8.25115 8.66506 8.34053 8.48694 8.51915C8.30872 8.69791 8.21961 8.96302 8.21961 9.31456C8.21961 9.69375 8.30982 9.97809 8.49044 10.1677C8.67096 10.3572 8.90752 10.452 9.20021 10.452C9.34491 10.452 9.49006 10.4256 9.63561 10.3725C9.78105 10.3195 9.90599 10.2552 10.0103 10.1797V9.7743H9.50722C9.34796 9.7743 9.21893 9.65382 9.21893 9.50523C9.21893 9.35659 9.34801 9.23615 9.50722 9.23615H10.4848C10.6083 9.23615 10.7084 9.3296 10.7084 9.4448V10.4144Z" fill="url(#paint0_linear_130_1059)"/>
</g>
<defs>
<linearGradient id="paint0_linear_130_1059" x1="7.50005" y1="0" x2="7.50005" y2="14" gradientUnits="userSpaceOnUse">
<stop stop-color="#ED482E"/>
<stop offset="1" stop-color="#FFBF1A"/>
</linearGradient>
<clipPath id="clip0_130_1059">
<rect width="15" height="14" fill="white"/>
</clipPath>
</defs>
</svg>
